HIERARCHY
ROOT hip
{
  OFFSET 0.0 0.0 0.0
  CHANNELS 6 Xposition Yposition Zposition Zrotation Yrotation Xrotation
  JOINT torso
  {
    OFFSET 0.0 0.0 0.0
    CHANNELS 3 Zrotation Xrotation Yrotation
    JOINT neck
    {
      OFFSET -31.42098999999993 328.8025209999999 74.3554680000002
      CHANNELS 3 Zrotation Xrotation Yrotation
      JOINT head
      {
        OFFSET 3.3519900000001144 303.81732099999994 206.53942900000015
        CHANNELS 3 Zrotation Xrotation Yrotation
        End Site
        {
          OFFSET 0.0 0.0 0.0
        }
      }
    }
    JOINT left_collar
    {
      OFFSET -31.42098999999993 328.8025209999999 74.3554680000002
      CHANNELS 3 Zrotation Xrotation Yrotation
      JOINT left_upper_arm
      {
        OFFSET -124.490479 -8.162841999999841 8.226441000000023
        CHANNELS 3 Zrotation Xrotation Yrotation
        JOINT left_forearm
        {
          OFFSET -253.595764 -1.5758060000000569 105.0729980000001
          CHANNELS 3 Zrotation Xrotation Yrotation
          JOINT left_hand
          {
            OFFSET -269.48803699999996 0.1478270000000066 -55.346191999999974
            CHANNELS 3 Zrotation Xrotation Yrotation
            End Site
            {
              OFFSET 0.0 0.0 0.0
            }
          }
        }
      }
    }
    JOINT right_collar
    {
      OFFSET -31.42098999999993 328.8025209999999 74.3554680000002
      CHANNELS 3 Zrotation Xrotation Yrotation
      JOINT right_upper_arm
      {
        OFFSET 162.02484099999998 0.46441600000002836 2.2303470000001653
        CHANNELS 3 Zrotation Xrotation Yrotation
        JOINT right_forearm
        {
          OFFSET 240.01246700000004 -25.835875999999985 121.34179699999959
          CHANNELS 3 Zrotation Xrotation Yrotation
          JOINT right_hand
          {
            OFFSET 252.48539699999992 18.910399999999868 -67.53466800000001
            CHANNELS 3 Zrotation Xrotation Yrotation
            End Site
            {
              OFFSET 0.0 0.0 0.0
            }
          }
        }
      }
    }
  }
}
MOTION
Frames: 19
Frame Time: 0.01
-284.9778439999997 294.82397499999973 1599.454834 -0.6895563905662727 -0.6672921291167431 11.3434795098154 3.4146977516583172 1.7920178451716469 -0.5512619549479297 2.384088958134201 0.7574830496982662 -1.620369682638811 0.0 0.0 0.0 -0.8852316919066472 0.3423431676588884 -6.900685879526956 3.6492148712150767 4.229822424002671 -47.92888387174097 1.5387221380817602 0.1823105679179872 -38.21540762181561 0.0 0.0 0.0 -1.9320418228017278 -0.22258498567230509 -17.697298453045196 -1.2589966116735543 9.273156001699416 50.59525212123461 -7.300593972046923 -2.187938819320522 39.00803287430091 0.0 0.0 0.0
-285.03198199999974 295.27392599999973 1599.471802 -0.6134294754081294 -0.6455407385206836 11.374130031614099 3.384839982643764 1.830064363688005 -0.5401667079899659 2.3569430579533472 0.7465197585318404 -1.602017037700631 0.0 0.0 0.0 -1.1275115353550007 0.3087844352095403 -6.851152423316156 3.376363004029247 3.980515779674554 -48.44475753627913 1.1048239283103658 0.12052631494984595 -37.71491959950853 0.0 0.0 0.0 -1.808270644949108 -0.20764322983429107 -17.893732870632824 -0.8827141345782715 8.945182580618702 51.229421347667085 -6.701251458205684 -2.228230171186969 38.3110336798713 0.0 0.0 0.0
-285.0856929999997 295.6321409999997 1599.867188 -0.5261354970006987 -0.9272159192512915 12.087845500484514 3.461611888450256 1.9439671895350985 -0.5421550377248819 2.5865904956533887 1.0057537549615108 -1.7569997036523493 0.0 0.0 0.0 -1.0495596080007694 0.3475740845228246 -7.358424286498969 2.652915477795839 3.2515759331097027 -49.095372026830866 0.6482390461998919 0.059813486290877335 -37.21382724425056 0.0 0.0 0.0 -2.179108352355921 -0.2763416586322714 -18.834427648062537 -0.19443497879641577 8.22593793687556 51.9855442734654 -6.031262388395479 -2.26701574908349 37.67130238511213 0.0 0.0 0.0
-285.1353149999997 296.0751949999997 1599.897339 -0.5791250465176835 -0.8534003105228785 12.074682962126387 3.519344897611991 1.9190587763896165 -0.5574911559294228 2.5641629919408366 1.0470657190246977 -1.7418210375028942 0.0 0.0 0.0 -1.0505719661254131 0.3405914076198373 -7.238324856795596 2.1982167803844175 2.7919876122578566 -49.64215258640939 0.24645783155706616 0.009541347608397237 -36.64900922596548 0.0 0.0 0.0 -2.1651550154025285 -0.27589706854810886 -18.936449896346687 0.2378454809991257 7.804908246885357 52.639974760905496 -5.629145416239432 -2.2817868127098473 37.05090957844971 0.0 0.0 0.0
-285.2239379999997 296.4984739999997 1599.941162 -0.6691326908747014 -0.7930036120628826 12.038572963794506 3.587735752426077 1.9136111850479276 -0.5726448533529291 2.564744713891844 1.085234582215552 -1.7421745196707132 0.0 0.0 0.0 -1.1737802745198107 0.31564793359499077 -7.078686400139768 1.8497048300310055 2.4365861752845417 -50.1256723730331 -0.14355570600193204 -0.035534615541841265 -36.16672820459214 0.0 0.0 0.0 -2.017688443965146 -0.2544229195996923 -19.005567514500683 0.6244813505000344 7.410106278060371 53.18622534536448 -5.137022195786972 -2.2963000644079856 36.3861030795381 0.0 0.0 0.0
-285.2795409999997 296.9502869999997 1599.950317 -0.6829974817612401 -0.7867305034462072 12.025703189428853 3.6131466334510747 1.9429161487690558 -0.574302931028425 2.543200655395576 1.1492708954379776 -1.7275834102623695 0.0 0.0 0.0 -1.28191046159608 0.2939585506638935 -6.936927236638601 1.4888327604110583 2.06626201312096 -50.73130856476539 -0.5753214037949819 -0.0810914280988522 -35.5493933305117 0.0 0.0 0.0 -1.9003148053626535 -0.23790794659430947 -19.110883856805422 0.9390741041616043 7.111186107628811 53.76106024561613 -4.62088608680311 -2.305549722856257 35.69440871275851 0.0 0.0 0.0
-285.3492429999997 297.3802189999997 1600.012573 -0.5591870737559939 -0.6832477753167898 11.971052044101716 3.4743889166664235 1.7344025190845471 -0.5711835356695604 2.5310990463159 1.5111449066903304 -1.7191111795115595 0.0 0.0 0.0 -0.7717325451501972 0.32846950877739856 -6.424687137658378 0.620016425572255 1.1232776047495476 -51.46730497431308 -0.9502362253211231 -0.11814239543800677 -35.15984615588855 0.0 0.0 0.0 -2.1960765641887092 -0.2879190405754024 -19.37387050742811 1.5951563370348156 6.381799084413205 54.562752910655455 -4.066709540001218 -2.3125545200679722 35.068304893609906 0.0 0.0 0.0
-285.40905799999973 297.77401699999973 1600.037842 -0.5885609287104128 -0.6547704814468255 11.861434072625444 3.486732713646808 1.7517517398406517 -0.5716323302472518 2.486636293234248 1.580855910724811 -1.6891642943673695 0.0 0.0 0.0 -0.7845065189804405 0.3143723017068863 -6.213331871359907 0.17401491545978803 0.6308399521681469 -51.92668386968155 -1.2699506490123478 -0.14538440157961563 -34.629699483769556 0.0 0.0 0.0 -2.0935724455441034 -0.2712511251358641 -19.334877110840562 1.9504206293411162 5.984556962948803 55.03275393685296 -3.798858571613048 -2.306732264626717 34.57395048956084 0.0 0.0 0.0
-285.4547119999997 298.17449999999974 1600.055786 -0.607377298051132 -0.6694295940998833 12.00399052007643 3.550106886070149 1.7787637683881299 -0.5817139805677091 2.5006729883753644 1.6659410015201437 -1.698537849748756 0.0 0.0 0.0 -0.8505722261081021 0.3077322182852412 -6.236309418233936 -0.26118137614077247 0.1424344533288834 -52.35595396238402 -1.5948597933563418 -0.17085403942534907 -34.14845907787312 0.0 0.0 0.0 -2.0585650391470733 -0.2691147970729478 -19.55033086514869 2.291403506786047 5.605840471003364 55.532307271700894 -3.178669170950564 -2.2980698855996327 33.75414410364367 0.0 0.0 0.0
-285.5032039999997 298.5332949999997 1600.110352 -0.6429244204142244 -0.6046017123037322 11.995172179855508 3.6141790694307394 1.7285188116762435 -0.6017114572323938 2.4492597164275427 1.774298144096902 -1.6639488069026163 0.0 0.0 0.0 -0.6507407058528836 0.3240360010352426 -6.1055933956209065 -0.8491400601930008 -0.5295386252277884 -52.99634504318892 -1.936914743851535 -0.19052604329112197 -33.404289446095945 0.0 0.0 0.0 -2.0813255154440724 -0.2735210015280528 -19.601725747723986 2.675899388525404 5.160514961026562 56.04587098197665 -2.6347470740400776 -2.281517526822756 32.99977871584823 0.0 0.0 0.0
-285.6004029999997 298.9247439999997 1600.151001 -0.5511770155913983 -0.5891435412845529 11.989381459757466 3.529159439912152 1.7416304781501777 -0.581940138892871 2.4561006493211126 1.8468641169171558 -1.6685037057132863 0.0 0.0 0.0 -0.8183449499612403 0.30165400851944124 -6.067004766821015 -1.1561195949933212 -0.887192560888171 -53.39852258122748 -2.1889313961768226 -0.2030643009829923 -32.9014794048214 0.0 0.0 0.0 -2.2861494926944284 -0.31164586473940675 -19.923050519354863 3.3297501620098875 4.388889123212859 56.95528222569587 -2.295733189884533 -2.253476961775453 32.24640764443383 0.0 0.0 0.0
-285.6292419999997 299.2899169999997 1600.165649 -0.5871757380305059 -0.5494054755939188 11.981560086963352 3.5739606518750238 1.7366962949689237 -0.5921061984360896 2.435559005198881 1.9134796135949363 -1.6546950408270853 0.0 0.0 0.0 -0.7909600647674846 0.298166147960721 -5.952719779988804 -1.6358577688301286 -1.452593802529946 -53.85260620803998 -2.421652619482835 -0.2096926735869191 -32.30052118626838 0.0 0.0 0.0 -2.3034216713220106 -0.31542365293524266 -19.978902228196457 3.749962330098635 3.8629661158358264 57.44567982165077 -1.88530023927959 -2.2260141044305013 31.56752537851336 0.0 0.0 0.0
-285.63027999999974 299.7620539999997 1599.856323 -0.7417774419238123 -0.12995202123024635 11.236500963059637 3.5538655625890483 1.5412939345231502 -0.6124860137997483 2.126918737146733 1.8931994412314173 -1.447707671710875 0.0 0.0 0.0 -0.7852230164300975 0.24854007357047922 -5.102584253910129 -1.943184213662015 -1.8233135011993988 -54.27956942743529 -2.595785538448751 -0.21039741316489702 -31.73694600139712 0.0 0.0 0.0 -1.9432986926467244 -0.24639778684289299 -19.23975925173342 3.962432896944374 3.619276561648926 57.85612356774567 -1.6377306876085476 -2.192206723184561 30.88993241569363 0.0 0.0 0.0
-285.5791929999997 300.0443419999997 1599.950684 -1.180704261310401 0.1497007984727826 10.922913344114075 3.914676031085706 1.3443279576289378 -0.7154181202031716 2.0436217371360277 1.8619388491958895 -1.3917967741794055 0.0 0.0 0.0 -0.7496079848948147 0.22352826477946494 -4.6150247289105915 -2.3651672473662124 -2.3339954270587033 -54.66569409501638 -2.8643808162846844 -0.2152442784851032 -31.145180073842113 0.0 0.0 0.0 -1.8198681149275315 -0.222635658251132 -18.89589705804255 4.2795706046994875 3.232976667684508 58.37084041165723 -1.1851544743939106 -2.1466664963407522 30.051981186843413 0.0 0.0 0.0
-285.60119599999973 300.3836059999997 1599.966431 -1.2313401332864475 0.19318598804404388 10.920666155077734 3.978834639130239 1.3354170278588866 -0.7304665731047123 2.0249613685703527 1.9281914771192612 -1.3793823785313986 0.0 0.0 0.0 -0.8668142953740358 0.20464081657332034 -4.505724301903085 -2.745150949676948 -2.801792683726782 -55.05855922058207 -3.11031875218307 -0.21686033027713153 -30.589403067473906 0.0 0.0 0.0 -1.7758317300557374 -0.21723371439226147 -18.99690102725768 4.585589121944105 2.8586265240507966 58.90732339107052 -0.8916925068836421 -2.105136349236494 29.37241627451591 0.0 0.0 0.0
-285.6358339999997 300.6687009999997 1599.971191 -1.2058919025666337 0.1517143226426291 10.95142708721059 3.9720336464134287 1.404344608828383 -0.7200601209678076 1.9720569879122183 2.0398951586439606 -1.3441126806133845 0.0 0.0 0.0 -0.9950615485674045 0.19334265342942228 -4.545323866359721 -3.076966772751573 -3.2156449407609062 -55.40378109651346 -3.3793151194931195 -0.21507426137811028 -29.954242680304247 0.0 0.0 0.0 -1.7089413272478882 -0.2086172630358815 -19.129265728537437 4.854197856854399 2.5404954836566254 59.49863362631178 -0.5466861728427596 -2.047859362832762 28.51231878949938 0.0 0.0 0.0
-285.6477659999997 300.9605409999997 1600.000122 -1.2118285341514692 0.14014454375163674 10.984178892199372 4.00007676776232 1.4330292621913203 -0.7223938508054045 1.9820531319603532 2.126395215679 -1.3509629607258518 0.0 0.0 0.0 -1.0471466803189404 0.18633825727880773 -4.519273917353605 -3.491671109559051 -3.7350887751269775 -55.758002664395775 -3.62307620587371 -0.21001775553487745 -29.351878711358143 0.0 0.0 0.0 -1.6389560025102863 -0.19935616825880895 -19.26115071697403 5.066668496923311 2.291421168230306 60.024485440148446 -0.07361211439540324 -1.9817614721430201 27.634926391673705 0.0 0.0 0.0
-285.7456049999997 301.3483889999997 1599.936157 -0.7066846639785145 -0.11391588486480518 11.20155811297734 3.5988645096120186 1.6665650374739855 -0.6062919636897671 2.0760675648352938 2.224878485184561 -1.4140403418624825 0.0 0.0 0.0 -1.057845710500251 0.19974270143101622 -4.775842530138666 -3.9569015240520535 -4.32512592589174 -56.151190945762266 -3.8251079100733945 -0.19997499255282347 -28.737584347408422 0.0 0.0 0.0 -1.7722001736722302 -0.22533092044137332 -19.66732816826867 5.373219597757569 1.895158575782911 60.574018526397175 0.2387288952393444 -1.9133953222191298 26.767882371736214 0.0 0.0 0.0
-285.7717899999997 301.6137079999997 1599.947144 -0.7099424680364677 -0.18823922810108382 11.161156017842604 3.606168836632741 1.772224452908424 -0.594466376667319 2.116623352276807 2.2054812080358923 -1.4411533743049436 0.0 0.0 0.0 -1.1378061077879225 0.1856962189540967 -4.679343903281161 -4.316894140118804 -4.79610784693751 -56.56566475392561 -4.049915215000894 -0.18659055219678788 -28.06325779040575 0.0 0.0 0.0 -1.7351979077883033 -0.21973503187515725 -19.690792736999747 5.632878050663444 1.5527522768334405 61.03963988660717 0.6830185136165844 -1.8372802801021082 25.921241857132596 0.0 0.0 0.0
